<mxfile host="65bd71144e">
    <diagram id="dDPzNShVRNH9cPpfi_1M" name="第 1 页">
        <mxGraphModel dx="759" dy="1150" grid="1" gridSize="10" guides="1" tooltips="1" connect="1" arrows="1" fold="1" page="1" pageScale="1" pageWidth="827" pageHeight="1169" math="0" shadow="0">
            <root>
                <mxCell id="0"/>
                <mxCell id="1" parent="0"/>
                <mxCell id="iVKF6QRcsDcTEFVmEp1s-2" value="" style="ellipse;shape=doubleEllipse;html=1;dashed=0;whitespace=wrap;aspect=fixed;fontFamily=SimSun;fontSize=18;direction=east;" parent="1" vertex="1">
                    <mxGeometry x="90" y="210" width="60" height="60" as="geometry"/>
                </mxCell>
                <mxCell id="iVKF6QRcsDcTEFVmEp1s-4" value="加载MongoDB&lt;br style=&quot;font-size: 18px;&quot;&gt;数据库配置" style="rounded=0;whiteSpace=wrap;html=1;fontFamily=SimSun;fontSize=18;direction=east;" parent="1" vertex="1">
                    <mxGeometry x="240" y="200" width="120" height="80" as="geometry"/>
                </mxCell>
                <mxCell id="iVKF6QRcsDcTEFVmEp1s-1" style="edgeStyle=orthogonalEdgeStyle;rounded=0;orthogonalLoop=1;jettySize=auto;html=1;exitX=1;exitY=0.5;exitDx=0;exitDy=0;entryX=0;entryY=0.5;entryDx=0;entryDy=0;fontFamily=SimSun;fontSize=18;" parent="1" source="iVKF6QRcsDcTEFVmEp1s-2" target="iVKF6QRcsDcTEFVmEp1s-4" edge="1">
                    <mxGeometry x="240" y="90" as="geometry"/>
                </mxCell>
                <mxCell id="iVKF6QRcsDcTEFVmEp1s-13" value="数据&lt;br&gt;完整性校验" style="rounded=0;whiteSpace=wrap;html=1;fontFamily=SimSun;fontSize=18;direction=east;" parent="1" vertex="1">
                    <mxGeometry x="680" y="320" width="120" height="80" as="geometry"/>
                </mxCell>
                <mxCell id="iVKF6QRcsDcTEFVmEp1s-15" value="数据库&lt;br&gt;分片操作" style="rounded=0;whiteSpace=wrap;html=1;fontFamily=SimSun;fontSize=18;direction=east;" parent="1" vertex="1">
                    <mxGeometry x="520" y="320" width="120" height="80" as="geometry"/>
                </mxCell>
                <mxCell id="iVKF6QRcsDcTEFVmEp1s-12" style="edgeStyle=orthogonalEdgeStyle;rounded=0;orthogonalLoop=1;jettySize=auto;html=1;entryX=1;entryY=0.5;entryDx=0;entryDy=0;fontFamily=SimSun;fontSize=18;" parent="1" source="iVKF6QRcsDcTEFVmEp1s-13" target="iVKF6QRcsDcTEFVmEp1s-15" edge="1">
                    <mxGeometry x="240" y="90" as="geometry"/>
                </mxCell>
                <mxCell id="iVKF6QRcsDcTEFVmEp1s-17" value="数据表&lt;br style=&quot;font-size: 18px;&quot;&gt;索引创建" style="rounded=0;whiteSpace=wrap;html=1;fontFamily=SimSun;fontSize=18;direction=east;" parent="1" vertex="1">
                    <mxGeometry x="360" y="320" width="120" height="80" as="geometry"/>
                </mxCell>
                <mxCell id="iVKF6QRcsDcTEFVmEp1s-14" style="edgeStyle=orthogonalEdgeStyle;rounded=0;orthogonalLoop=1;jettySize=auto;html=1;exitX=0;exitY=0.5;exitDx=0;exitDy=0;entryX=1;entryY=0.5;entryDx=0;entryDy=0;fontFamily=SimSun;fontSize=18;" parent="1" source="iVKF6QRcsDcTEFVmEp1s-15" target="iVKF6QRcsDcTEFVmEp1s-17" edge="1">
                    <mxGeometry x="240" y="90" as="geometry"/>
                </mxCell>
                <mxCell id="iVKF6QRcsDcTEFVmEp1s-18" value="" style="ellipse;html=1;shape=endState;fillColor=#000000;strokeColor=#000000;fontFamily=SimSun;fontSize=18;direction=east;" parent="1" vertex="1">
                    <mxGeometry x="90" y="330" width="60" height="60" as="geometry"/>
                </mxCell>
                <mxCell id="iVKF6QRcsDcTEFVmEp1s-25" style="edgeStyle=orthogonalEdgeStyle;rounded=0;orthogonalLoop=1;jettySize=auto;html=1;exitX=0.5;exitY=1;exitDx=0;exitDy=0;entryX=0.5;entryY=0;entryDx=0;entryDy=0;fontFamily=SimSun;fontSize=18;" parent="1" source="iVKF6QRcsDcTEFVmEp1s-20" target="iVKF6QRcsDcTEFVmEp1s-13" edge="1">
                    <mxGeometry x="240" y="90" as="geometry">
                        <Array as="points"/>
                    </mxGeometry>
                </mxCell>
                <mxCell id="iVKF6QRcsDcTEFVmEp1s-20" value="生成唯一标识" style="rounded=0;whiteSpace=wrap;html=1;fontFamily=SimSun;fontSize=18;direction=east;" parent="1" vertex="1">
                    <mxGeometry x="680" y="200" width="120" height="80" as="geometry"/>
                </mxCell>
                <mxCell id="iVKF6QRcsDcTEFVmEp1s-26" value="获取分析&lt;br style=&quot;font-size: 18px;&quot;&gt;结果或获取&lt;br style=&quot;font-size: 18px;&quot;&gt;上传文件" style="rounded=0;whiteSpace=wrap;html=1;fontFamily=SimSun;fontSize=18;direction=east;" parent="1" vertex="1">
                    <mxGeometry x="470" y="200" width="120" height="80" as="geometry"/>
                </mxCell>
                <mxCell id="iVKF6QRcsDcTEFVmEp1s-3" style="edgeStyle=orthogonalEdgeStyle;rounded=0;orthogonalLoop=1;jettySize=auto;html=1;exitX=1;exitY=0.5;exitDx=0;exitDy=0;entryX=0;entryY=0.5;entryDx=0;entryDy=0;fontFamily=SimSun;fontSize=18;" parent="1" source="iVKF6QRcsDcTEFVmEp1s-4" target="iVKF6QRcsDcTEFVmEp1s-26" edge="1">
                    <mxGeometry x="240" y="90" as="geometry">
                        <mxPoint x="290" y="305" as="targetPoint"/>
                    </mxGeometry>
                </mxCell>
                <mxCell id="iVKF6QRcsDcTEFVmEp1s-21" style="edgeStyle=orthogonalEdgeStyle;rounded=0;orthogonalLoop=1;jettySize=auto;html=1;fontFamily=SimSun;fontSize=18;exitX=1;exitY=0.5;exitDx=0;exitDy=0;" parent="1" source="iVKF6QRcsDcTEFVmEp1s-26" target="iVKF6QRcsDcTEFVmEp1s-20" edge="1">
                    <mxGeometry x="240" y="90" as="geometry">
                        <mxPoint x="290" y="395" as="sourcePoint"/>
                    </mxGeometry>
                </mxCell>
                <mxCell id="iVKF6QRcsDcTEFVmEp1s-31" style="edgeStyle=orthogonalEdgeStyle;rounded=0;orthogonalLoop=1;jettySize=auto;html=1;exitX=0;exitY=0.5;exitDx=0;exitDy=0;entryX=1;entryY=0.5;entryDx=0;entryDy=0;fontFamily=SimSun;fontSize=18;" parent="1" source="iVKF6QRcsDcTEFVmEp1s-28" target="iVKF6QRcsDcTEFVmEp1s-18" edge="1">
                    <mxGeometry x="240" y="90" as="geometry"/>
                </mxCell>
                <mxCell id="iVKF6QRcsDcTEFVmEp1s-28" value="数据导入&lt;br style=&quot;font-size: 18px;&quot;&gt;MongoDB完成" style="rounded=0;whiteSpace=wrap;html=1;fontFamily=SimSun;fontSize=18;direction=east;" parent="1" vertex="1">
                    <mxGeometry x="200" y="320" width="120" height="80" as="geometry"/>
                </mxCell>
                <mxCell id="iVKF6QRcsDcTEFVmEp1s-30" style="edgeStyle=orthogonalEdgeStyle;rounded=0;orthogonalLoop=1;jettySize=auto;html=1;exitX=0;exitY=0.5;exitDx=0;exitDy=0;entryX=1;entryY=0.5;entryDx=0;entryDy=0;fontFamily=SimSun;fontSize=18;" parent="1" source="iVKF6QRcsDcTEFVmEp1s-17" target="iVKF6QRcsDcTEFVmEp1s-28" edge="1">
                    <mxGeometry x="240" y="90" as="geometry"/>
                </mxCell>
            </root>
        </mxGraphModel>
    </diagram>
</mxfile>